HIERARCHY
ROOT __0
{
	OFFSET 0.0 0.0 0.0
	CHANNELS 0
	JOINT torso_base_link
	{
		OFFSET 0.000000 0.000000 0.000000
		CHANNELS 6 Xposition Yposition Zposition Zrotation Xrotation Yrotation
		JOINT torso_link_b1
		{
			OFFSET 0.925000 0.000000 8.835000
			CHANNELS 6 Xposition Yposition Zposition Zrotation Xrotation Yrotation
			JOINT tail_lb1
			{
				OFFSET 0.000000 0.000000 3.221000
				CHANNELS 3 Zrotation Xrotation Yrotation
				JOINT arm_left_link_1_s
				{
					OFFSET 1.000000 0.000000 0.000000
					CHANNELS 3 Zrotation Xrotation Yrotation
					JOINT arm_left_link_2_l
					{
						OFFSET 0.000297 2.530458 0.000400
						CHANNELS 3 Zrotation Xrotation Yrotation
						JOINT tail_left_link_2_l
						{
							OFFSET 0.000000 0.000000 -2.000400
							CHANNELS 3 Zrotation Xrotation Yrotation
							JOINT arm_left_link_3_e
							{
								OFFSET -0.000297 1.690000 2.000000
								CHANNELS 3 Zrotation Xrotation Yrotation
								JOINT arm_left_link_4_u
								{
									OFFSET 0.000000 1.809932 0.000000
									CHANNELS 3 Zrotation Xrotation Yrotation
									JOINT tail_l4u
									{
										OFFSET 0.000297 0.000000 2.035159
										CHANNELS 3 Zrotation Xrotation Yrotation
										JOINT arm_left_link_5_r
										{
											OFFSET 0.000000 4.485610 -2.035159
											CHANNELS 3 Zrotation Xrotation Yrotation
											JOINT arm_left_link_6_b
											{
												OFFSET -0.000297 -0.999547 0.000000
												CHANNELS 3 Zrotation Xrotation Yrotation
												JOINT tail_l6b
												{
													OFFSET 0.000296 0.000000 2.268923
													CHANNELS 3 Zrotation Xrotation Yrotation
													JOINT arm_left_link_7_t
													{
														OFFSET -0.000296 2.679547 -2.268923
														CHANNELS 3 Zrotation Xrotation Yrotation
														JOINT arm_left_tool
														{
															OFFSET 0.000296 -0.500000 0.000000
															CHANNELS 3 Zrotation Xrotation Yrotation
															JOINT hand_left_1
															{
																OFFSET 0.000004 -0.500000 0.000000
																CHANNELS 6 Xposition Yposition Zposition Zrotation Xrotation Yrotation
																End Site
																{
																	OFFSET 0.999704 0.000000 0.000100
																}
															}
															JOINT hand_left_2
															{
																OFFSET 0.000004 -0.500000 0.000000
																CHANNELS 6 Xposition Yposition Zposition Zrotation Xrotation Yrotation
																End Site
																{
																	OFFSET -1.000295 0.000000 0.000080
																}
															}
														}
													}
												}
											}
										}
									}
								}
							}
						}
					}
				}
			}
			JOINT tail_right_link_1_s
			{
				OFFSET 0.000000 0.000000 3.221000
				CHANNELS 3 Zrotation Xrotation Yrotation
				JOINT arm_right_link_1_s
				{
					OFFSET 1.000000 -3.829999 0.000000
					CHANNELS 3 Zrotation Xrotation Yrotation
					JOINT arm_right_link_2_l
					{
						OFFSET 0.000000 1.299544 0.004000
						CHANNELS 3 Zrotation Xrotation Yrotation
						JOINT tail_r2l
						{
							OFFSET 0.000000 0.000000 2.000001
							CHANNELS 3 Zrotation Xrotation Yrotation
							JOINT arm_right_link_3_e
							{
								OFFSET 0.000000 -4.499545 -2.004001
								CHANNELS 3 Zrotation Xrotation Yrotation
								JOINT arm_right_link_4_u
								{
									OFFSET 0.000000 0.999618 0.000000
									CHANNELS 3 Zrotation Xrotation Yrotation
									JOINT tailr4u
									{
										OFFSET 0.000000 0.000000 -1.829300
										CHANNELS 3 Zrotation Xrotation Yrotation
										JOINT arm_right_link_5_r
										{
											OFFSET 0.000000 -1.935997 1.829300
											CHANNELS 3 Zrotation Xrotation Yrotation
											JOINT arm_right_link_6_b
											{
												OFFSET 0.000000 -1.550063 0.000000
												CHANNELS 3 Zrotation Xrotation Yrotation
												JOINT tail_r6b
												{
													OFFSET 0.000000 0.000000 -1.806000
													CHANNELS 3 Zrotation Xrotation Yrotation
													JOINT arm_right_link_7_t
													{
														OFFSET 0.000000 -1.679957 1.806000
														CHANNELS 3 Xrotation Yrotation Zrotation
														JOINT arm_right_tool
														{
															OFFSET 0.000000 -0.499600 0.000000
															CHANNELS 6 Xposition Yposition Zposition Zrotation Xrotation Yrotation
															JOINT hand_right_1
															{
																OFFSET 0.000000 0.500000 0.000000
																CHANNELS 6 Xposition Yposition Zposition Zrotation Xrotation Yrotation
																End Site
																{
																	OFFSET 1.000311 0.000035 0.000072
																}
															}
															JOINT hand_right_2
															{
																OFFSET 0.000000 0.500000 0.000000
																CHANNELS 6 Xposition Yposition Zposition Zrotation Xrotation Yrotation
																End Site
																{
																	OFFSET -0.999690 0.000000 0.000072
																}
															}
														}
													}
												}
											}
										}
									}
								}
							}
						}
					}
				}
			}
		}
	}
	JOINT lefttarget
	{
		OFFSET 1.925296 13.000000 12.056000
		CHANNELS 6 Xposition Yposition Zposition Zrotation Xrotation Yrotation
		End Site
		{
			OFFSET 0.000000 1.000000 0.000000
		}
	}
	JOINT right_target
	{
		OFFSET 1.925000 -13.000000 12.056000
		CHANNELS 6 Xposition Yposition Zposition Zrotation Xrotation Yrotation
		End Site
		{
			OFFSET 0.000000 -1.000000 0.000000
		}
	}
}
MOTION
Frames: 7
Frame Time: 0.041667
0.000000 0.000000 0.000000 -0.000000 0.000000 -0.000000 0.925000 -0.000000 8.835000 0.000000 0.000000 0.000000 0.000000 0.000000 0.000000 0.001351 0.016914 97.656979 -87.897745 0.000004 0.000006 0.000000 -0.000005 -0.000000 -0.000028 0.000006 -95.722984 -130.467541 -0.006361 -0.013729 0.000005 -0.000000 0.000000 -0.000011 -0.000001 0.003335 -56.523647 -0.006228 -0.003335 -0.000006 0.000012 -0.000006 0.036135 -0.033848 93.839607 -0.000003 -0.000008 0.000002 0.000004 -0.499999 -0.000002 0.000000 -0.000013 0.000000 0.000005 -0.499997 -0.000000 0.000000 -0.000000 0.000001 -0.000000 -0.000000 -0.000000 0.174744 0.199968 97.699415 87.890915 -0.000009 0.000004 0.000000 -0.000002 -0.000000 -0.000003 -0.000010 -95.723025 130.480915 -0.000057 -0.000002 -0.000004 0.000002 0.000000 -0.000004 0.000004 -3.482017 56.563119 -0.000014 -0.000025 0.000000 -0.000003 0.000000 -0.001109 -86.158212 -0.000438 -0.000000 -0.499602 0.000000 0.000000 -0.000000 -0.000001 0.000000 0.499998 0.000001 0.000000 0.000000 -0.000001 -0.000001 0.500001 0.000001 0.000000 -0.000000 -0.000001 4.394640 2.848738 12.679745 48.422240 89.937240 41.518227 4.513629 -2.865276 12.679780 -0.000000 -89.999989 89.999996 
0.000000 0.000000 0.000000 -0.000000 0.000000 -0.000000 0.925000 0.000000 8.835000 0.000856 -0.000000 -0.000000 0.000000 -0.000000 0.000000 0.001349 0.016915 97.664458 -87.906618 0.000005 0.000005 0.000000 -0.000001 0.000000 -0.000041 0.000035 -95.723913 -130.340404 -0.006375 -0.013716 0.000002 -0.000000 -0.000000 -0.000009 -0.000143 -0.478475 -56.914020 -0.006251 -0.003380 -0.000007 0.000008 -0.000005 0.036154 -0.033856 93.878655 -0.000003 -0.000008 -0.000000 0.000004 -0.499998 -0.000002 -0.000000 0.000012 0.000001 0.000005 -0.499999 -0.000000 0.000001 -0.000000 0.000001 -0.000000 -0.000000 0.000000 0.174750 0.199966 97.698917 87.886646 -0.000010 0.000003 -0.000000 -0.000002 0.000000 0.000007 -0.000008 -95.735333 130.499520 -0.000050 -0.000010 -0.000002 -0.000000 0.000000 0.000001 0.000000 -3.606157 56.543670 -0.000011 -0.000019 0.000000 -0.000005 0.000000 -0.001274 -86.049346 -0.000624 -0.000000 -0.499600 0.000000 -0.000000 -0.000000 -0.000000 -0.000000 0.500001 0.000000 0.000000 0.000000 -0.000002 -0.000000 0.499997 -0.000000 0.000001 0.000000 -0.000001 4.392958 2.858274 12.679628 48.317305 89.748269 41.443976 4.513175 -2.868858 12.680028 66.078132 -89.941693 156.117729 
0.000000 0.000000 0.000000 -0.000000 0.000000 -0.000000 0.925000 0.000000 8.835000 0.000781 -0.000000 -0.000000 0.000000 -0.000000 0.000000 0.001354 0.016911 97.634938 -87.934512 0.000002 0.000000 0.000000 -0.000003 0.000000 -0.000000 -0.000006 -95.750510 -129.885732 -0.006420 -0.013667 0.000004 0.000002 0.000000 0.000003 -0.000289 -0.977711 -57.833384 -0.006318 -0.003480 -0.000006 0.000007 -0.000006 0.036083 -0.033857 93.712135 -0.000003 -0.000008 0.000000 0.000004 -0.499998 -0.000002 -0.000000 0.000035 -0.000000 0.000005 -0.500001 -0.000001 -0.000000 0.000000 -0.000001 -0.000000 -0.000000 0.000000 0.174744 0.200030 97.720466 87.874195 -0.000010 -0.000002 0.000000 -0.000002 0.000000 0.000002 0.000026 -95.854390 130.586359 -0.000053 -0.000005 -0.000001 -0.000002 0.000000 -0.000001 0.000001 -3.866762 56.400485 -0.000014 -0.000023 0.000000 -0.000002 -0.000000 -0.001427 -85.875634 -0.000792 -0.000000 -0.499602 -0.000000 -0.000000 0.000000 0.000001 0.000000 0.500000 -0.000000 0.000000 0.000000 0.000000 0.000000 0.500002 -0.000000 -0.000001 0.000002 0.000000 4.390141 2.874223 12.679435 48.165125 89.432264 41.296505 4.511806 -2.879641 12.680775 66.020028 -89.766205 156.178873 
0.000000 0.000000 0.000000 -0.000000 0.000000 -0.000000 0.925000 0.000000 8.835000 0.001560 -0.000000 -0.000000 -0.000000 0.000000 0.000000 0.001377 0.016887 97.461936 -87.961574 0.000003 0.000004 0.000000 0.000002 -0.000000 -0.000013 0.000060 -95.985618 -129.772556 -0.006426 -0.013653 0.000007 0.000002 0.000001 -0.000000 -0.000456 -1.542333 -58.104727 -0.006338 -0.003508 -0.000006 0.000008 -0.000006 0.035810 -0.033879 93.220334 -0.000003 -0.000008 0.000001 0.000005 -0.500001 -0.000002 0.000000 -0.000024 0.000000 0.000004 -0.499998 -0.000003 -0.000000 0.000000 0.000001 -0.000000 -0.000000 0.000000 0.174720 0.200170 97.765313 87.883142 -0.000008 0.000003 0.000000 0.000002 0.000000 -0.000002 -0.000033 -96.163873 130.695629 -0.000050 -0.000007 -0.000002 0.000002 -0.000000 -0.000002 0.000000 -4.111874 56.183459 -0.000017 -0.000022 -0.000000 -0.000002 -0.000000 -0.000643 -85.840096 -0.000017 -0.000000 -0.499600 -0.000000 0.000000 0.000000 0.000001 -0.000000 0.500000 0.000001 0.000000 0.000000 -0.000001 -0.000001 0.500001 -0.000000 0.000000 0.000001 -0.000001 4.386186 2.896616 12.679162 47.954307 88.988581 41.086556 4.509521 -2.897673 12.682026 65.921325 -89.472739 156.279578 
0.000000 0.000000 0.000000 -0.000000 0.000000 -0.000000 0.925000 0.000000 8.835000 0.002577 -0.000000 -0.000000 0.000000 0.000000 -0.000000 0.001405 0.016858 97.259483 -87.992521 0.000003 0.000003 0.000000 -0.000003 -0.000000 -0.000020 0.000035 -96.444894 -129.641799 -0.006437 -0.013637 0.000004 -0.000000 -0.000000 -0.000022 -0.000604 -2.031977 -58.445184 -0.006363 -0.003547 -0.000006 0.000005 -0.000006 0.035255 -0.033900 92.364279 -0.000003 -0.000008 0.000000 0.000004 -0.499999 -0.000001 0.000000 -0.000021 -0.000000 0.000003 -0.500003 -0.000001 0.000000 -0.000000 0.000000 -0.000000 -0.000000 0.000000 0.174694 0.200432 97.851503 87.900908 -0.000011 -0.000001 0.000000 -0.000000 -0.000000 0.000021 -0.000010 -96.705028 130.863788 -0.000049 -0.000011 0.000001 0.000002 -0.000000 -0.000008 0.000001 -4.305569 55.850836 -0.000014 -0.000025 -0.000000 -0.000005 -0.000000 -0.001352 -85.953368 -0.000719 -0.000000 -0.499600 -0.000000 -0.000000 -0.000000 0.000000 -0.000000 0.500001 -0.000000 -0.000000 -0.000000 0.000001 -0.000001 0.500000 0.000000 -0.000000 -0.000001 0.000000 4.381089 2.925477 12.678812 47.682749 88.416744 40.815749 4.506310 -2.922992 12.683781 65.780548 -89.060667 156.418791 
0.000000 0.000000 0.000000 -0.000000 0.000000 -0.000000 0.925000 0.000000 8.835000 -0.002093 0.000000 0.000000 0.000000 0.000000 -0.000000 0.001448 0.016813 96.945198 -88.022793 0.000003 0.000005 0.000000 -0.000003 -0.000000 -0.000022 0.000044 -97.215257 -129.358647 -0.006460 -0.013602 0.000008 0.000002 0.000000 -0.000009 -0.000664 -2.237528 -58.923318 -0.006394 -0.003596 -0.000006 0.000007 -0.000006 0.034450 -0.033925 90.970347 -0.000003 -0.000008 -0.000000 0.000003 -0.499999 -0.000001 0.000000 0.000008 -0.000000 0.000005 -0.500000 -0.000001 0.000000 -0.000000 0.000000 -0.000000 0.000000 -0.000000 0.174583 0.201122 98.077951 87.922764 -0.000009 -0.000001 -0.000000 0.000002 -0.000000 0.000006 -0.000026 -97.590849 131.180176 -0.000047 -0.000014 -0.000001 -0.000002 0.000000 0.000003 -0.000001 -4.338577 55.064148 -0.000015 -0.000021 0.000000 -0.000005 0.000001 -0.001205 -86.356957 -0.000497 0.000000 -0.499602 -0.000001 0.000000 0.000000 -0.000000 -0.000001 0.500002 0.000001 -0.000000 0.000000 0.000000 -0.000001 0.500001 0.000001 -0.000001 0.000002 -0.000000 4.374849 2.960820 12.678384 47.350461 87.716534 40.483778 4.502171 -2.955626 12.686043 65.599855 -88.529572 156.599053 
0.000000 0.000000 0.000000 -0.000000 0.000000 -0.000000 0.925000 0.000000 8.835000 -0.009606 0.000000 0.000000 -0.000000 0.000000 0.000000 0.001479 0.016780 96.713867 -88.058535 0.000002 0.000006 0.000000 -0.000001 -0.000000 -0.000022 0.000016 -97.815405 -129.143578 -0.006490 -0.013588 0.000007 -0.000000 0.000001 -0.000018 -0.000888 -2.992646 -59.186663 -0.006413 -0.003630 -0.000006 0.000007 -0.000007 0.033815 -0.033931 89.890815 -0.000003 -0.000008 0.000001 0.000005 -0.500000 0.000000 0.000000 -0.000009 0.000000 0.000004 -0.499997 -0.000001 0.000000 -0.000001 0.000000 -0.000001 -0.000000 0.000000 0.174503 0.201748 98.283465 87.985903 -0.000009 0.000005 -0.000000 -0.000002 -0.000000 0.000028 -0.000005 -98.347873 131.470992 -0.000048 -0.000008 -0.000002 0.000003 -0.000000 -0.000006 -0.000002 -4.756334 54.566839 -0.000014 -0.000025 0.000000 -0.000003 0.000000 -0.000951 -86.408102 -0.000248 -0.000001 -0.499600 -0.000001 -0.000000 0.000000 -0.000001 0.000000 0.499998 -0.000000 -0.000000 0.000000 -0.000001 -0.000002 0.500000 0.000000 0.000001 -0.000002 -0.000000 4.374460 2.983074 12.603008 43.230948 86.145857 44.236161 4.494675 -2.985192 12.638424 71.056760 -87.479389 162.270091 
